{
    "asset" : {
        "generator" : "Khronos glTF Blender I/O v1.6.16",
        "version" : "2.0"
    },
    "scene" : 0,
    "scenes" : [
        {
            "name" : "Scene",
            "nodes" : [
                0
            ]
        }
    ],
    "nodes" : [
        {
            "mesh" : 0,
            "name" : "Union_4.001",
            "rotation" : [
                0.7071068286895752,
                0,
                0,
                0.7071068286895752
            ],
            "scale" : [
                50,
                50,
                50
            ]
        }
    ],
    "materials" : [
        {
            "doubleSided" : true,
            "name" : "SVGMat.005",
            "pbrMetallicRoughness" : {
                "baseColorFactor" : [
                    0.16202937066555023,
                    0.16202937066555023,
                    0.16202937066555023,
                    1
                ],
                "metallicFactor" : 0,
                "roughnessFactor" : 0.4000000059604645
            }
        }
    ],
    "meshes" : [
        {
            "name" : "Union_4.001",
            "primitives" : [
                {
                    "attributes" : {
                        "POSITION" : 0,
                        "NORMAL" : 1,
                        "TEXCOORD_0" : 2
                    },
                    "indices" : 3,
                    "material" : 0
                }
            ]
        }
    ],
    "accessors" : [
        {
            "bufferView" : 0,
            "componentType" : 5126,
            "count" : 3655,
            "max" : [
                0.02532847225666046,
                0.003124538343399763,
                0.018255412578582764
            ],
            "min" : [
                -0.025239553302526474,
                -0.0038754609413444996,
                -0.018961220979690552
            ],
            "type" : "VEC3"
        },
        {
            "bufferView" : 1,
            "componentType" : 5126,
            "count" : 3655,
            "type" : "VEC3"
        },
        {
            "bufferView" : 2,
            "componentType" : 5126,
            "count" : 3655,
            "type" : "VEC2"
        },
        {
            "bufferView" : 3,
            "componentType" : 5123,
            "count" : 15804,
            "type" : "SCALAR"
        }
    ],
    "bufferViews" : [
        {
            "buffer" : 0,
            "byteLength" : 43860,
            "byteOffset" : 0
        },
        {
            "buffer" : 0,
            "byteLength" : 43860,
            "byteOffset" : 43860
        },
        {
            "buffer" : 0,
            "byteLength" : 29240,
            "byteOffset" : 87720
        },
        {
            "buffer" : 0,
            "byteLength" : 31608,
            "byteOffset" : 116960
        }
    ],
    "buffers" : [
        {
            "byteLength" : 148568,
            "uri" : "data:application/octet-stream;base64,"
        }
    ]
}
